<svg width="54" height="60" viewBox="0 0 54 60" fill="none" xmlns="http://www.w3.org/2000/svg">
<path d="M50.6198 29.3629C50.6198 26.2971 48.1346 23.8119 45.0688 23.8119C44.8716 23.8119 44.6771 23.8224 44.4853 23.8425L52.1097 1.35547H19.7088L27.3224 23.823C27.2108 23.8163 27.0986 23.8119 26.9851 23.8119C23.9194 23.8119 21.4341 26.2971 21.4341 29.3629C21.4341 31.841 23.0581 33.939 25.2997 34.6528C24.1157 36.7035 22.6261 38.5505 20.9348 40.146C18.635 42.3157 16.0029 43.9608 13.1563 44.9746C9.76694 43.2335 8.16634 39.3611 9.61063 35.9661C9.77369 35.5828 9.94012 35.1941 10.0994 34.8072C12.5547 34.2341 14.3844 32.0327 14.3844 29.4028C14.3844 26.337 11.8991 23.8517 8.83333 23.8517C5.76735 23.8517 3.28209 26.337 3.28209 29.4028C3.28209 31.2829 4.21759 32.9431 5.64733 33.9474C4.27328 37.0758 2.25377 40.3496 1.62454 44.1439C0.870438 48.6915 1.62222 53.5186 5.55515 56.2446C14.7149 62.5929 24.6576 52.3091 35.141 49.7239C38.9402 48.7869 43.1107 48.9379 46.458 46.9992C48.9718 45.5433 50.6289 43.1306 51.0993 40.4217C51.5638 37.7458 50.8865 35.0814 49.3289 32.921C50.1345 31.9574 50.6198 30.7171 50.6198 29.3629ZM32.5357 29.3825C32.5357 29.376 32.5364 29.3694 32.5364 29.3629C32.5364 27.3497 31.4644 25.5867 29.8604 24.6136L35.9202 12.3601L41.9906 24.7436C40.4999 25.7388 39.5176 27.436 39.5176 29.3629C39.5176 29.4034 39.5199 29.4433 39.5207 29.4836L32.5357 29.3825Z" fill="#C63D14"/>
<path d="M51.9748 29.3631C51.9748 25.9913 49.5454 23.1778 46.3453 22.5768L54 0H17.8171L25.4834 22.6226C22.3946 23.3101 20.0777 26.0704 20.0777 29.3631C20.0777 31.8359 21.3844 34.008 23.343 35.2285C22.4009 36.6318 21.2838 37.9525 20.0036 39.1601C17.9736 41.0754 15.7117 42.5279 13.2732 43.4835C10.8173 41.9407 9.77907 39.0314 10.8574 36.4968L10.9418 36.2985C10.9945 36.1745 11.0474 36.0501 11.1002 35.9256C13.7976 34.985 15.7393 32.4173 15.7393 29.403C15.7393 25.5945 12.6409 22.4963 8.83238 22.4963C5.02391 22.4963 1.92566 25.5945 1.92566 29.403C1.92566 31.3253 2.71562 33.0659 3.98715 34.3193C3.75659 34.8108 3.51423 35.3103 3.26511 35.822C2.10242 38.2101 0.784695 40.9168 0.28625 43.9225C-0.70368 49.8918 0.892906 54.6636 4.78196 57.359C7.14193 58.9946 9.53839 59.6379 11.95 59.6377C16.4913 59.6375 21.0849 57.3562 25.5779 55.1245C28.8139 53.5174 32.1597 51.8554 35.4649 51.0403C36.6947 50.737 37.9601 50.5545 39.2998 50.3613C41.9563 49.978 44.7036 49.5819 47.1369 48.1726C49.9574 46.5389 51.8883 43.7984 52.4342 40.654C52.9029 37.9546 52.3387 35.2512 50.9629 32.9583C51.6044 31.9104 51.9748 30.6794 51.9748 29.3631ZM49.2634 29.3631C49.2634 31.6765 47.3814 33.5587 45.0679 33.5587C42.7547 33.5587 40.8725 31.6765 40.8725 29.3631C40.8725 27.0498 42.7547 25.1678 45.0679 25.1678C47.3814 25.1678 49.2634 27.0498 49.2634 29.3631ZM50.2177 2.71139L43.4582 22.6477C43.1652 22.718 42.8796 22.8066 42.6022 22.9131L35.9248 9.29116L29.2279 22.8325C28.9385 22.7327 28.6407 22.6507 28.3352 22.5899L21.5989 2.71139H50.2177ZM26.9844 25.1678C29.2977 25.1678 31.1797 27.0498 31.1797 29.3631C31.1797 31.6765 29.2977 33.5587 26.9844 33.5587C24.6713 33.5587 22.7891 31.6765 22.7891 29.3631C22.7891 27.0498 24.6713 25.1678 26.9844 25.1678ZM8.83238 25.2077C11.1459 25.2077 13.0279 27.0896 13.0279 29.403C13.0279 31.7163 11.1459 33.5985 8.83238 33.5985C6.51924 33.5985 4.63705 31.7163 4.63705 29.403C4.63705 27.0896 6.51924 25.2077 8.83238 25.2077ZM49.7627 40.1901C49.3545 42.5417 47.902 44.596 45.7779 45.8262C43.7978 46.973 41.425 47.3154 38.9127 47.6776C37.5669 47.8716 36.1752 48.0724 34.8157 48.4078C31.2209 49.2942 27.7389 51.0237 24.3717 52.6962C17.6333 56.0431 11.8138 58.9334 6.32666 55.1304C2.30724 52.3448 2.49287 47.1905 2.96115 44.3661C3.39505 41.7494 4.56828 39.3394 5.70291 37.0088C5.8993 36.6055 6.08998 36.2104 6.27708 35.8178C6.83987 36.0429 7.4383 36.1962 8.06204 36.2658C6.90715 40.0777 8.72354 44.2222 12.5358 46.1808L13.0575 46.4489L13.6101 46.252C16.624 45.1788 19.401 43.4563 21.8643 41.1324C23.4567 39.6303 24.825 37.9683 25.9502 36.1924C26.2877 36.2433 26.633 36.2701 26.9844 36.2701C30.7929 36.2701 33.8913 33.1718 33.8913 29.3631C33.8913 27.3149 32.9942 25.473 31.5733 24.207L35.914 15.4294L40.2988 24.3742C38.9832 25.6327 38.1611 27.4031 38.1611 29.3631C38.1611 33.1718 41.2594 36.2701 45.0679 36.2701C46.5311 36.2701 47.8885 35.8115 49.0065 35.0323C49.7827 36.6213 50.0719 38.4092 49.7627 40.1901Z" fill="white"/>
</svg>
