<svg width="54" height="54" viewBox="0 0 54 54" fill="none" xmlns="http://www.w3.org/2000/svg">
<path d="M27 54C41.9117 54 54 41.9117 54 27C54 12.0883 41.9117 0 27 0C12.0883 0 0 12.0883 0 27C0 41.9117 12.0883 54 27 54Z" fill="#13AA52"/>
<path d="M34.2173 23.7009C32.5119 16.1742 28.4814 13.6993 28.0474 12.7538C27.5728 12.0867 27.0919 10.9002 27.0919 10.9002C27.084 10.8802 27.0713 10.8448 27.0565 10.8105C27.0075 11.4776 26.9822 11.735 26.3515 12.4079C25.3748 13.1715 20.364 17.376 19.9564 25.9274C19.5762 33.9029 25.7176 38.6553 26.5482 39.2613L26.6426 39.3282V39.3224C26.6478 39.3625 26.9062 41.2209 27.0877 43.19H27.7384C27.8911 41.7981 28.1199 40.4156 28.4239 39.0487L28.4767 39.0145C28.8482 38.7481 29.2024 38.4583 29.5372 38.147L29.5751 38.1127C31.3407 36.4816 34.5148 32.709 34.4836 26.6941C34.4771 25.6908 34.388 24.6897 34.2173 23.7009ZM27.0186 34.7583C27.0186 34.7583 27.0186 23.5723 27.3877 23.5744C27.6756 23.5744 28.0485 38.003 28.0485 38.003C27.5359 37.9413 27.0186 35.6284 27.0186 34.7583Z" fill="white"/>
</svg>
